# xmcd CD database file
#
# Track frame offsets:
#	150
#	21657
#	40245
#	60346
#	79260
#	96682
#	114711
#
# Disc length: 1845 seconds
#
# Revision: 0
# Processed by: cddbd v1.5.1PL0 Copyright (c) Steve Scherf et al.
# Submitted via: CDex 1.51
#
DISCID=5f073307
DTITLE=A.S.P - マラカスシェイクスイーツ
DYEAR=2003
DGENRE=Jazz
TTITLE0=路地裏のショータイム
TTITLE1=ラバリラ
TTITLE2=月の夜に恋の光
TTITLE3=ラストスロータップ
TTITLE4=Sweet Jazz NO.6
TTITLE5=マラカスシェイクビーチ
TTITLE6=ポルシェ 25
EXTD=YEAR: 2003
EXTT0=
EXTT1=
EXTT2=
EXTT3=
EXTT4=
EXTT5=
EXTT6=
PLAYORDER=
